G04 (created by PCBNEW-RS274X (2012-apr-16-27)-stable) date Sun 09 Feb 2014 20:33:20 GMT*
G01*
G70*
G90*
%MOIN*%
G04 Gerber Fmt 3.4, Leading zero omitted, Abs format*
%FSLAX34Y34*%
G04 APERTURE LIST*
%ADD10C,0.006000*%
%ADD11C,0.005900*%
%ADD12C,0.000100*%
%ADD13C,0.055000*%
%ADD14R,0.055000X0.055000*%
%ADD15C,0.160000*%
%ADD16C,0.060000*%
%ADD17C,0.066000*%
G04 APERTURE END LIST*
G54D10*
G54D11*
X60529Y-34221D02*
X60529Y-34090D01*
X60839Y-34090D02*
X60248Y-34090D01*
X60248Y-34277D01*
X60839Y-34597D02*
X60529Y-34597D01*
X60473Y-34578D01*
X60445Y-34540D01*
X60445Y-34465D01*
X60473Y-34428D01*
X60811Y-34597D02*
X60839Y-34559D01*
X60839Y-34465D01*
X60811Y-34428D01*
X60754Y-34409D01*
X60698Y-34409D01*
X60642Y-34428D01*
X60614Y-34465D01*
X60614Y-34559D01*
X60585Y-34597D01*
X60811Y-34953D02*
X60839Y-34915D01*
X60839Y-34840D01*
X60811Y-34803D01*
X60782Y-34784D01*
X60726Y-34765D01*
X60557Y-34765D01*
X60501Y-34784D01*
X60473Y-34803D01*
X60445Y-34840D01*
X60445Y-34915D01*
X60473Y-34953D01*
X60811Y-35272D02*
X60839Y-35234D01*
X60839Y-35159D01*
X60811Y-35122D01*
X60754Y-35103D01*
X60529Y-35103D01*
X60473Y-35122D01*
X60445Y-35159D01*
X60445Y-35234D01*
X60473Y-35272D01*
X60529Y-35291D01*
X60585Y-35291D01*
X60642Y-35103D01*
X60839Y-35516D02*
X60811Y-35479D01*
X60754Y-35460D01*
X60248Y-35460D01*
X60811Y-35816D02*
X60839Y-35778D01*
X60839Y-35703D01*
X60811Y-35666D01*
X60754Y-35647D01*
X60529Y-35647D01*
X60473Y-35666D01*
X60445Y-35703D01*
X60445Y-35778D01*
X60473Y-35816D01*
X60529Y-35835D01*
X60585Y-35835D01*
X60642Y-35647D01*
X60811Y-35985D02*
X60839Y-36023D01*
X60839Y-36098D01*
X60811Y-36135D01*
X60754Y-36154D01*
X60726Y-36154D01*
X60670Y-36135D01*
X60642Y-36098D01*
X60642Y-36041D01*
X60614Y-36004D01*
X60557Y-35985D01*
X60529Y-35985D01*
X60473Y-36004D01*
X60445Y-36041D01*
X60445Y-36098D01*
X60473Y-36135D01*
X60811Y-36304D02*
X60839Y-36342D01*
X60839Y-36417D01*
X60811Y-36454D01*
X60754Y-36473D01*
X60726Y-36473D01*
X60670Y-36454D01*
X60642Y-36417D01*
X60642Y-36360D01*
X60614Y-36323D01*
X60557Y-36304D01*
X60529Y-36304D01*
X60473Y-36323D01*
X60445Y-36360D01*
X60445Y-36417D01*
X60473Y-36454D01*
X60445Y-36586D02*
X60445Y-36736D01*
X60248Y-36642D02*
X60754Y-36642D01*
X60811Y-36661D01*
X60839Y-36698D01*
X60839Y-36736D01*
X60811Y-37017D02*
X60839Y-36979D01*
X60839Y-36904D01*
X60811Y-36867D01*
X60754Y-36848D01*
X60529Y-36848D01*
X60473Y-36867D01*
X60445Y-36904D01*
X60445Y-36979D01*
X60473Y-37017D01*
X60529Y-37036D01*
X60585Y-37036D01*
X60642Y-36848D01*
X60811Y-37374D02*
X60839Y-37336D01*
X60839Y-37261D01*
X60811Y-37224D01*
X60782Y-37205D01*
X60726Y-37186D01*
X60557Y-37186D01*
X60501Y-37205D01*
X60473Y-37224D01*
X60445Y-37261D01*
X60445Y-37336D01*
X60473Y-37374D01*
X60839Y-37543D02*
X60248Y-37543D01*
X60839Y-37712D02*
X60529Y-37712D01*
X60473Y-37693D01*
X60445Y-37655D01*
X60445Y-37599D01*
X60473Y-37562D01*
X60501Y-37543D01*
G54D12*
G36*
X59984Y-36884D02*
X59984Y-36854D01*
X59122Y-36854D01*
X59083Y-36854D01*
X59042Y-36854D01*
X59011Y-36854D01*
X58987Y-36853D01*
X58971Y-36852D01*
X58960Y-36851D01*
X58954Y-36849D01*
X58952Y-36847D01*
X58950Y-36840D01*
X58947Y-36825D01*
X58942Y-36803D01*
X58937Y-36775D01*
X58931Y-36743D01*
X58927Y-36723D01*
X58921Y-36690D01*
X58915Y-36660D01*
X58910Y-36635D01*
X58906Y-36617D01*
X58903Y-36606D01*
X58902Y-36603D01*
X58896Y-36600D01*
X58883Y-36594D01*
X58864Y-36585D01*
X58841Y-36575D01*
X58815Y-36564D01*
X58790Y-36553D01*
X58766Y-36544D01*
X58745Y-36535D01*
X58729Y-36529D01*
X58720Y-36526D01*
X58719Y-36526D01*
X58712Y-36529D01*
X58699Y-36536D01*
X58682Y-36547D01*
X58665Y-36558D01*
X58621Y-36589D01*
X58584Y-36614D01*
X58554Y-36634D01*
X58532Y-36648D01*
X58517Y-36657D01*
X58507Y-36662D01*
X58505Y-36662D01*
X58500Y-36659D01*
X58489Y-36649D01*
X58473Y-36635D01*
X58454Y-36617D01*
X58432Y-36596D01*
X58410Y-36574D01*
X58388Y-36552D01*
X58367Y-36531D01*
X58349Y-36513D01*
X58335Y-36498D01*
X58326Y-36487D01*
X58324Y-36483D01*
X58326Y-36477D01*
X58334Y-36464D01*
X58346Y-36446D01*
X58361Y-36423D01*
X58379Y-36396D01*
X58394Y-36374D01*
X58414Y-36345D01*
X58431Y-36319D01*
X58446Y-36297D01*
X58457Y-36280D01*
X58463Y-36269D01*
X58465Y-36265D01*
X58463Y-36258D01*
X58458Y-36243D01*
X58450Y-36223D01*
X58440Y-36199D01*
X58430Y-36174D01*
X58419Y-36149D01*
X58409Y-36126D01*
X58400Y-36106D01*
X58393Y-36093D01*
X58389Y-36087D01*
X58389Y-36086D01*
X58382Y-36084D01*
X58366Y-36081D01*
X58344Y-36076D01*
X58316Y-36071D01*
X58285Y-36065D01*
X58268Y-36062D01*
X58235Y-36056D01*
X58204Y-36050D01*
X58178Y-36044D01*
X58158Y-36040D01*
X58146Y-36037D01*
X58143Y-36036D01*
X58140Y-36034D01*
X58137Y-36032D01*
X58135Y-36027D01*
X58134Y-36020D01*
X58133Y-36007D01*
X58132Y-35989D01*
X58132Y-35965D01*
X58132Y-35931D01*
X58132Y-35905D01*
X58132Y-35869D01*
X58132Y-35837D01*
X58133Y-35810D01*
X58134Y-35791D01*
X58136Y-35779D01*
X58136Y-35776D01*
X58142Y-35775D01*
X58157Y-35772D01*
X58179Y-35767D01*
X58206Y-35762D01*
X58238Y-35756D01*
X58264Y-35751D01*
X58298Y-35744D01*
X58329Y-35738D01*
X58355Y-35732D01*
X58376Y-35727D01*
X58389Y-35723D01*
X58392Y-35722D01*
X58397Y-35715D01*
X58404Y-35700D01*
X58412Y-35680D01*
X58422Y-35656D01*
X58432Y-35631D01*
X58442Y-35605D01*
X58451Y-35582D01*
X58458Y-35562D01*
X58462Y-35548D01*
X58463Y-35542D01*
X58460Y-35536D01*
X58452Y-35522D01*
X58439Y-35503D01*
X58424Y-35480D01*
X58405Y-35453D01*
X58392Y-35434D01*
X58373Y-35406D01*
X58356Y-35380D01*
X58342Y-35359D01*
X58331Y-35342D01*
X58325Y-35331D01*
X58324Y-35328D01*
X58327Y-35323D01*
X58337Y-35312D01*
X58352Y-35296D01*
X58371Y-35276D01*
X58393Y-35252D01*
X58411Y-35234D01*
X58441Y-35205D01*
X58464Y-35182D01*
X58482Y-35166D01*
X58495Y-35155D01*
X58504Y-35150D01*
X58509Y-35149D01*
X58515Y-35153D01*
X58529Y-35161D01*
X58548Y-35173D01*
X58572Y-35189D01*
X58599Y-35207D01*
X58614Y-35218D01*
X58642Y-35237D01*
X58668Y-35254D01*
X58690Y-35268D01*
X58707Y-35278D01*
X58717Y-35283D01*
X58720Y-35284D01*
X58727Y-35282D01*
X58742Y-35277D01*
X58762Y-35269D01*
X58785Y-35260D01*
X58811Y-35249D01*
X58836Y-35238D01*
X58860Y-35228D01*
X58879Y-35219D01*
X58894Y-35212D01*
X58901Y-35208D01*
X58901Y-35208D01*
X58903Y-35202D01*
X58906Y-35188D01*
X58911Y-35167D01*
X58917Y-35139D01*
X58923Y-35108D01*
X58927Y-35087D01*
X58933Y-35054D01*
X58939Y-35023D01*
X58944Y-34998D01*
X58948Y-34978D01*
X58951Y-34966D01*
X58952Y-34963D01*
X58957Y-34961D01*
X58971Y-34959D01*
X58992Y-34958D01*
X59018Y-34956D01*
X59048Y-34956D01*
X59079Y-34955D01*
X59110Y-34956D01*
X59140Y-34956D01*
X59167Y-34957D01*
X59188Y-34958D01*
X59204Y-34960D01*
X59210Y-34962D01*
X59211Y-34962D01*
X59213Y-34969D01*
X59217Y-34984D01*
X59222Y-35006D01*
X59227Y-35033D01*
X59233Y-35065D01*
X59236Y-35082D01*
X59242Y-35115D01*
X59248Y-35144D01*
X59254Y-35169D01*
X59259Y-35188D01*
X59262Y-35199D01*
X59263Y-35201D01*
X59270Y-35205D01*
X59284Y-35212D01*
X59304Y-35220D01*
X59328Y-35230D01*
X59354Y-35241D01*
X59381Y-35252D01*
X59406Y-35261D01*
X59427Y-35270D01*
X59444Y-35276D01*
X59454Y-35279D01*
X59455Y-35279D01*
X59461Y-35276D01*
X59474Y-35268D01*
X59493Y-35256D01*
X59516Y-35241D01*
X59542Y-35223D01*
X59557Y-35213D01*
X59584Y-35195D01*
X59609Y-35178D01*
X59631Y-35164D01*
X59648Y-35154D01*
X59658Y-35149D01*
X59660Y-35148D01*
X59666Y-35151D01*
X59677Y-35161D01*
X59693Y-35175D01*
X59712Y-35193D01*
X59733Y-35213D01*
X59756Y-35235D01*
X59778Y-35257D01*
X59799Y-35278D01*
X59817Y-35296D01*
X59831Y-35311D01*
X59840Y-35322D01*
X59843Y-35326D01*
X59840Y-35331D01*
X59833Y-35343D01*
X59821Y-35361D01*
X59806Y-35384D01*
X59788Y-35410D01*
X59777Y-35426D01*
X59758Y-35454D01*
X59742Y-35479D01*
X59728Y-35500D01*
X59718Y-35517D01*
X59712Y-35527D01*
X59712Y-35529D01*
X59714Y-35536D01*
X59720Y-35549D01*
X59729Y-35567D01*
X59735Y-35579D01*
X59746Y-35600D01*
X59752Y-35615D01*
X59752Y-35625D01*
X59746Y-35633D01*
X59732Y-35641D01*
X59709Y-35650D01*
X59707Y-35651D01*
X59693Y-35657D01*
X59671Y-35666D01*
X59643Y-35677D01*
X59609Y-35691D01*
X59573Y-35706D01*
X59534Y-35722D01*
X59508Y-35733D01*
X59470Y-35748D01*
X59435Y-35763D01*
X59404Y-35775D01*
X59378Y-35786D01*
X59358Y-35793D01*
X59345Y-35798D01*
X59341Y-35799D01*
X59335Y-35795D01*
X59325Y-35785D01*
X59313Y-35770D01*
X59308Y-35764D01*
X59273Y-35722D01*
X59236Y-35689D01*
X59197Y-35666D01*
X59154Y-35651D01*
X59106Y-35643D01*
X59080Y-35643D01*
X59029Y-35647D01*
X58981Y-35661D01*
X58938Y-35684D01*
X58898Y-35717D01*
X58887Y-35728D01*
X58857Y-35769D01*
X58836Y-35813D01*
X58823Y-35860D01*
X58819Y-35907D01*
X58824Y-35955D01*
X58837Y-36001D01*
X58859Y-36044D01*
X58889Y-36084D01*
X58902Y-36097D01*
X58943Y-36129D01*
X58986Y-36152D01*
X59032Y-36165D01*
X59083Y-36169D01*
X59083Y-36169D01*
X59135Y-36164D01*
X59182Y-36151D01*
X59226Y-36128D01*
X59266Y-36095D01*
X59303Y-36054D01*
X59311Y-36042D01*
X59323Y-36027D01*
X59333Y-36016D01*
X59340Y-36011D01*
X59341Y-36011D01*
X59348Y-36013D01*
X59362Y-36018D01*
X59382Y-36026D01*
X59404Y-36035D01*
X59407Y-36036D01*
X59428Y-36044D01*
X59456Y-36056D01*
X59489Y-36070D01*
X59526Y-36086D01*
X59566Y-36102D01*
X59605Y-36118D01*
X59608Y-36119D01*
X59644Y-36134D01*
X59676Y-36148D01*
X59704Y-36160D01*
X59727Y-36170D01*
X59744Y-36177D01*
X59753Y-36181D01*
X59754Y-36182D01*
X59753Y-36188D01*
X59749Y-36201D01*
X59741Y-36220D01*
X59735Y-36232D01*
X59725Y-36251D01*
X59717Y-36268D01*
X59712Y-36279D01*
X59712Y-36283D01*
X59714Y-36289D01*
X59722Y-36302D01*
X59734Y-36320D01*
X59749Y-36343D01*
X59766Y-36369D01*
X59772Y-36376D01*
X59790Y-36403D01*
X59807Y-36428D01*
X59821Y-36449D01*
X59831Y-36465D01*
X59837Y-36474D01*
X59838Y-36475D01*
X59839Y-36479D01*
X59839Y-36483D01*
X59836Y-36489D01*
X59830Y-36498D01*
X59820Y-36509D01*
X59805Y-36526D01*
X59784Y-36547D01*
X59757Y-36574D01*
X59756Y-36574D01*
X59730Y-36600D01*
X59707Y-36623D01*
X59687Y-36641D01*
X59672Y-36654D01*
X59662Y-36661D01*
X59660Y-36662D01*
X59653Y-36659D01*
X59639Y-36652D01*
X59620Y-36640D01*
X59596Y-36624D01*
X59570Y-36607D01*
X59555Y-36597D01*
X59528Y-36578D01*
X59503Y-36561D01*
X59482Y-36547D01*
X59467Y-36537D01*
X59457Y-36532D01*
X59456Y-36531D01*
X59449Y-36533D01*
X59435Y-36538D01*
X59416Y-36545D01*
X59392Y-36555D01*
X59366Y-36565D01*
X59340Y-36576D01*
X59316Y-36586D01*
X59294Y-36595D01*
X59277Y-36602D01*
X59267Y-36607D01*
X59266Y-36608D01*
X59262Y-36612D01*
X59259Y-36621D01*
X59255Y-36636D01*
X59250Y-36656D01*
X59244Y-36684D01*
X59238Y-36719D01*
X59230Y-36764D01*
X59225Y-36791D01*
X59221Y-36812D01*
X59217Y-36830D01*
X59215Y-36842D01*
X59214Y-36845D01*
X59212Y-36848D01*
X59209Y-36850D01*
X59202Y-36851D01*
X59192Y-36852D01*
X59175Y-36853D01*
X59152Y-36854D01*
X59122Y-36854D01*
X59984Y-36854D01*
X59984Y-35900D01*
X59984Y-34916D01*
X59000Y-34916D01*
X58016Y-34916D01*
X58016Y-35900D01*
X58016Y-36884D01*
X59000Y-36884D01*
X59984Y-36884D01*
X59984Y-36884D01*
X59984Y-36884D01*
G37*
G54D13*
X59450Y-34100D03*
X59450Y-37600D03*
X60100Y-42150D03*
X60100Y-38650D03*
G54D14*
X52350Y-44450D03*
G54D13*
X52350Y-43450D03*
X52350Y-42450D03*
G54D15*
X60050Y-45000D03*
X52600Y-34550D03*
G54D16*
X54050Y-44930D03*
X54050Y-42970D03*
G54D13*
X57336Y-43070D03*
X57336Y-45630D03*
X55564Y-43070D03*
X55564Y-45630D03*
X52513Y-37537D03*
X54987Y-35063D03*
G54D14*
X54950Y-41850D03*
G54D13*
X55950Y-41850D03*
X56950Y-41850D03*
X57950Y-41850D03*
X57950Y-38850D03*
X56950Y-38850D03*
X55950Y-38850D03*
X54950Y-38850D03*
G54D17*
X56900Y-36650D03*
X55900Y-36650D03*
X55900Y-34100D03*
X56900Y-34100D03*
M02*
