M48
METRIC,TZ
T1C0.813
T2C3.048
%
G90
G05
T1
X132969Y-107823
X132969Y-110363
X132969Y-112903
X133383Y-95344
X137287Y-109144
X137287Y-114122
X139573Y-98679
X139573Y-106299
X139667Y-89060
X141133Y-109398
X141133Y-115900
X141986Y-86614
X141986Y-93091
X142113Y-98679
X142113Y-106299
X144526Y-86614
X144526Y-93091
X144653Y-98679
X144653Y-106299
X145633Y-109398
X145633Y-115900
X147193Y-98679
X147193Y-106299
X151003Y-86614
X151003Y-95504
X152654Y-98171
X152654Y-107061
T2
X133604Y-87757
X152527Y-114300
T0
M30
