G04 (created by PCBNEW-RS274X (2012-apr-16-27)-stable) date Sun 09 Feb 2014 20:33:20 GMT*
G01*
G70*
G90*
%MOIN*%
G04 Gerber Fmt 3.4, Leading zero omitted, Abs format*
%FSLAX34Y34*%
G04 APERTURE LIST*
%ADD10C,0.006000*%
%ADD11C,0.005000*%
%ADD12C,0.012000*%
%ADD13C,0.015000*%
%ADD14C,0.010000*%
%ADD15C,0.003900*%
%ADD16C,0.008000*%
%ADD17C,0.003500*%
G04 APERTURE END LIST*
G54D10*
G54D11*
X59700Y-34350D02*
X58950Y-34350D01*
X58950Y-34350D02*
X58950Y-37350D01*
X58950Y-37350D02*
X59950Y-37350D01*
X59950Y-37350D02*
X59950Y-34350D01*
X59950Y-34350D02*
X59700Y-34350D01*
X59450Y-34100D02*
X59450Y-34350D01*
X59450Y-37350D02*
X59450Y-37600D01*
X59700Y-34350D02*
X59950Y-34600D01*
X59850Y-41900D02*
X60600Y-41900D01*
X60600Y-41900D02*
X60600Y-38900D01*
X60600Y-38900D02*
X59600Y-38900D01*
X59600Y-38900D02*
X59600Y-41900D01*
X59600Y-41900D02*
X59850Y-41900D01*
X60100Y-42150D02*
X60100Y-41900D01*
X60100Y-38900D02*
X60100Y-38650D01*
X59850Y-41900D02*
X59600Y-41650D01*
G54D12*
X52850Y-44950D02*
X51850Y-44950D01*
X51850Y-44950D02*
X51850Y-41950D01*
X51850Y-41950D02*
X52850Y-41950D01*
X52850Y-41950D02*
X52850Y-44950D01*
X51850Y-43950D02*
X52850Y-43950D01*
G54D13*
X60950Y-45000D02*
X60932Y-45174D01*
X60882Y-45342D01*
X60799Y-45498D01*
X60688Y-45634D01*
X60553Y-45746D01*
X60398Y-45829D01*
X60230Y-45881D01*
X60056Y-45899D01*
X59882Y-45884D01*
X59713Y-45834D01*
X59558Y-45753D01*
X59421Y-45643D01*
X59308Y-45508D01*
X59223Y-45354D01*
X59170Y-45187D01*
X59151Y-45012D01*
X59165Y-44838D01*
X59214Y-44669D01*
X59294Y-44513D01*
X59403Y-44375D01*
X59537Y-44261D01*
X59690Y-44176D01*
X59857Y-44121D01*
X60032Y-44101D01*
X60206Y-44114D01*
X60375Y-44161D01*
X60532Y-44241D01*
X60670Y-44349D01*
X60785Y-44482D01*
X60872Y-44634D01*
X60927Y-44801D01*
X60949Y-44975D01*
X60950Y-45000D01*
X53500Y-34550D02*
X53482Y-34724D01*
X53432Y-34892D01*
X53349Y-35048D01*
X53238Y-35184D01*
X53103Y-35296D01*
X52948Y-35379D01*
X52780Y-35431D01*
X52606Y-35449D01*
X52432Y-35434D01*
X52263Y-35384D01*
X52108Y-35303D01*
X51971Y-35193D01*
X51858Y-35058D01*
X51773Y-34904D01*
X51720Y-34737D01*
X51701Y-34562D01*
X51715Y-34388D01*
X51764Y-34219D01*
X51844Y-34063D01*
X51953Y-33925D01*
X52087Y-33811D01*
X52240Y-33726D01*
X52407Y-33671D01*
X52582Y-33651D01*
X52756Y-33664D01*
X52925Y-33711D01*
X53082Y-33791D01*
X53220Y-33899D01*
X53335Y-34032D01*
X53422Y-34184D01*
X53477Y-34351D01*
X53499Y-34525D01*
X53500Y-34550D01*
X57730Y-43150D02*
X57730Y-45570D01*
X55170Y-43150D02*
X55170Y-45570D01*
X57062Y-44330D02*
X57050Y-44448D01*
X57015Y-44563D01*
X56959Y-44668D01*
X56884Y-44761D01*
X56792Y-44837D01*
X56687Y-44894D01*
X56573Y-44929D01*
X56454Y-44941D01*
X56336Y-44931D01*
X56221Y-44897D01*
X56115Y-44842D01*
X56022Y-44767D01*
X55946Y-44675D01*
X55888Y-44571D01*
X55852Y-44457D01*
X55839Y-44338D01*
X55849Y-44220D01*
X55881Y-44105D01*
X55936Y-43999D01*
X56010Y-43905D01*
X56101Y-43828D01*
X56205Y-43770D01*
X56319Y-43733D01*
X56438Y-43719D01*
X56556Y-43728D01*
X56671Y-43760D01*
X56777Y-43814D01*
X56872Y-43887D01*
X56950Y-43978D01*
X57009Y-44082D01*
X57046Y-44195D01*
X57061Y-44313D01*
X57062Y-44330D01*
X55170Y-45570D02*
X57730Y-45570D01*
X55170Y-43150D02*
X57730Y-43150D01*
G54D11*
X52513Y-37184D02*
X53043Y-37714D01*
X53043Y-37714D02*
X55164Y-35593D01*
X55164Y-35593D02*
X54457Y-34886D01*
X54457Y-34886D02*
X52336Y-37007D01*
X52336Y-37007D02*
X52513Y-37184D01*
X52513Y-37537D02*
X52689Y-37361D01*
X54811Y-35239D02*
X54987Y-35063D01*
X52513Y-37184D02*
X52513Y-36830D01*
G54D13*
X54470Y-38370D02*
X58430Y-38370D01*
X58430Y-38370D02*
X58430Y-42330D01*
X58430Y-42330D02*
X54470Y-42330D01*
X54470Y-42330D02*
X54470Y-38370D01*
G54D10*
X58852Y-35916D02*
X58614Y-36050D01*
X58852Y-36145D02*
X58352Y-36145D01*
X58352Y-35992D01*
X58376Y-35954D01*
X58400Y-35935D01*
X58448Y-35916D01*
X58519Y-35916D01*
X58567Y-35935D01*
X58590Y-35954D01*
X58614Y-35992D01*
X58614Y-36145D01*
X58400Y-35764D02*
X58376Y-35745D01*
X58352Y-35707D01*
X58352Y-35611D01*
X58376Y-35573D01*
X58400Y-35554D01*
X58448Y-35535D01*
X58495Y-35535D01*
X58567Y-35554D01*
X58852Y-35783D01*
X58852Y-35535D01*
X59200Y-36345D02*
X59176Y-36326D01*
X59152Y-36288D01*
X59152Y-36192D01*
X59176Y-36154D01*
X59200Y-36135D01*
X59248Y-36116D01*
X59295Y-36116D01*
X59367Y-36135D01*
X59652Y-36364D01*
X59652Y-36116D01*
X59200Y-35964D02*
X59176Y-35945D01*
X59152Y-35907D01*
X59152Y-35811D01*
X59176Y-35773D01*
X59200Y-35754D01*
X59248Y-35735D01*
X59295Y-35735D01*
X59367Y-35754D01*
X59652Y-35983D01*
X59652Y-35735D01*
X59152Y-35488D02*
X59152Y-35449D01*
X59176Y-35411D01*
X59200Y-35392D01*
X59248Y-35373D01*
X59343Y-35354D01*
X59462Y-35354D01*
X59557Y-35373D01*
X59605Y-35392D01*
X59629Y-35411D01*
X59652Y-35449D01*
X59652Y-35488D01*
X59629Y-35526D01*
X59605Y-35545D01*
X59557Y-35564D01*
X59462Y-35583D01*
X59343Y-35583D01*
X59248Y-35564D01*
X59200Y-35545D01*
X59176Y-35526D01*
X59152Y-35488D01*
X59452Y-40466D02*
X59214Y-40600D01*
X59452Y-40695D02*
X58952Y-40695D01*
X58952Y-40542D01*
X58976Y-40504D01*
X59000Y-40485D01*
X59048Y-40466D01*
X59119Y-40466D01*
X59167Y-40485D01*
X59190Y-40504D01*
X59214Y-40542D01*
X59214Y-40695D01*
X58952Y-40333D02*
X58952Y-40085D01*
X59143Y-40219D01*
X59143Y-40161D01*
X59167Y-40123D01*
X59190Y-40104D01*
X59238Y-40085D01*
X59357Y-40085D01*
X59405Y-40104D01*
X59429Y-40123D01*
X59452Y-40161D01*
X59452Y-40276D01*
X59429Y-40314D01*
X59405Y-40333D01*
X60302Y-40626D02*
X60302Y-40855D01*
X60302Y-40741D02*
X59802Y-40741D01*
X59874Y-40779D01*
X59921Y-40817D01*
X59945Y-40855D01*
X59802Y-40379D02*
X59802Y-40340D01*
X59826Y-40302D01*
X59850Y-40283D01*
X59898Y-40264D01*
X59993Y-40245D01*
X60112Y-40245D01*
X60207Y-40264D01*
X60255Y-40283D01*
X60279Y-40302D01*
X60302Y-40340D01*
X60302Y-40379D01*
X60279Y-40417D01*
X60255Y-40436D01*
X60207Y-40455D01*
X60112Y-40474D01*
X59993Y-40474D01*
X59898Y-40455D01*
X59850Y-40436D01*
X59826Y-40417D01*
X59802Y-40379D01*
X60302Y-40074D02*
X59802Y-40074D01*
X60302Y-39845D02*
X60017Y-40017D01*
X59802Y-39845D02*
X60088Y-40074D01*
G54D14*
X51817Y-41593D02*
X51874Y-41612D01*
X51970Y-41612D01*
X52008Y-41593D01*
X52027Y-41574D01*
X52046Y-41536D01*
X52046Y-41498D01*
X52027Y-41460D01*
X52008Y-41440D01*
X51970Y-41421D01*
X51893Y-41402D01*
X51855Y-41383D01*
X51836Y-41364D01*
X51817Y-41326D01*
X51817Y-41288D01*
X51836Y-41250D01*
X51855Y-41231D01*
X51893Y-41212D01*
X51989Y-41212D01*
X52046Y-41231D01*
X52179Y-41212D02*
X52274Y-41612D01*
X52351Y-41326D01*
X52427Y-41612D01*
X52522Y-41212D01*
X52655Y-41250D02*
X52674Y-41231D01*
X52712Y-41212D01*
X52808Y-41212D01*
X52846Y-41231D01*
X52865Y-41250D01*
X52884Y-41288D01*
X52884Y-41326D01*
X52865Y-41383D01*
X52636Y-41612D01*
X52884Y-41612D01*
G54D15*
X53053Y-44362D02*
X53098Y-44377D01*
X53113Y-44392D01*
X53128Y-44422D01*
X53128Y-44467D01*
X53113Y-44497D01*
X53098Y-44512D01*
X53068Y-44527D01*
X52948Y-44527D01*
X52948Y-44212D01*
X53053Y-44212D01*
X53083Y-44227D01*
X53098Y-44242D01*
X53113Y-44272D01*
X53113Y-44302D01*
X53098Y-44332D01*
X53083Y-44347D01*
X53053Y-44362D01*
X52948Y-44362D01*
X53218Y-44212D02*
X53398Y-44212D01*
X53308Y-44527D02*
X53308Y-44212D01*
X53668Y-44527D02*
X53488Y-44527D01*
X53578Y-44527D02*
X53578Y-44212D01*
X53548Y-44257D01*
X53518Y-44287D01*
X53488Y-44302D01*
X53263Y-45712D02*
X53308Y-45727D01*
X53323Y-45742D01*
X53338Y-45772D01*
X53338Y-45817D01*
X53323Y-45847D01*
X53308Y-45862D01*
X53278Y-45877D01*
X53158Y-45877D01*
X53158Y-45562D01*
X53263Y-45562D01*
X53293Y-45577D01*
X53308Y-45592D01*
X53323Y-45622D01*
X53323Y-45652D01*
X53308Y-45682D01*
X53293Y-45697D01*
X53263Y-45712D01*
X53158Y-45712D01*
X53458Y-45787D02*
X53608Y-45787D01*
X53428Y-45877D02*
X53533Y-45562D01*
X53638Y-45877D01*
X53698Y-45562D02*
X53878Y-45562D01*
X53788Y-45877D02*
X53788Y-45562D01*
X53938Y-45562D02*
X54118Y-45562D01*
X54028Y-45877D02*
X54028Y-45562D01*
X54223Y-45712D02*
X54328Y-45712D01*
X54373Y-45877D02*
X54223Y-45877D01*
X54223Y-45562D01*
X54373Y-45562D01*
X54688Y-45877D02*
X54583Y-45727D01*
X54508Y-45877D02*
X54508Y-45562D01*
X54628Y-45562D01*
X54658Y-45577D01*
X54673Y-45592D01*
X54688Y-45622D01*
X54688Y-45667D01*
X54673Y-45697D01*
X54658Y-45712D01*
X54628Y-45727D01*
X54508Y-45727D01*
X54883Y-45727D02*
X54883Y-45877D01*
X54778Y-45562D02*
X54883Y-45727D01*
X54988Y-45562D01*
X56030Y-42762D02*
X56075Y-42777D01*
X56150Y-42777D01*
X56180Y-42762D01*
X56195Y-42747D01*
X56210Y-42717D01*
X56210Y-42687D01*
X56195Y-42657D01*
X56180Y-42642D01*
X56150Y-42627D01*
X56090Y-42612D01*
X56060Y-42597D01*
X56045Y-42582D01*
X56030Y-42552D01*
X56030Y-42522D01*
X56045Y-42492D01*
X56060Y-42477D01*
X56090Y-42462D01*
X56165Y-42462D01*
X56210Y-42477D01*
X56315Y-42462D02*
X56390Y-42777D01*
X56450Y-42552D01*
X56510Y-42777D01*
X56585Y-42462D01*
X56870Y-42777D02*
X56690Y-42777D01*
X56780Y-42777D02*
X56780Y-42462D01*
X56750Y-42507D01*
X56720Y-42537D01*
X56690Y-42552D01*
X56562Y-45327D02*
X56577Y-45282D01*
X56577Y-45207D01*
X56562Y-45177D01*
X56547Y-45162D01*
X56517Y-45147D01*
X56487Y-45147D01*
X56457Y-45162D01*
X56442Y-45177D01*
X56427Y-45207D01*
X56412Y-45267D01*
X56397Y-45297D01*
X56382Y-45312D01*
X56352Y-45327D01*
X56322Y-45327D01*
X56292Y-45312D01*
X56277Y-45297D01*
X56262Y-45267D01*
X56262Y-45192D01*
X56277Y-45147D01*
X56262Y-45042D02*
X56577Y-44967D01*
X56352Y-44907D01*
X56577Y-44847D01*
X56262Y-44772D01*
X56607Y-44727D02*
X56607Y-44487D01*
X56577Y-44412D02*
X56262Y-44412D01*
X56262Y-44292D01*
X56277Y-44262D01*
X56292Y-44247D01*
X56322Y-44232D01*
X56367Y-44232D01*
X56397Y-44247D01*
X56412Y-44262D01*
X56427Y-44292D01*
X56427Y-44412D01*
X56262Y-44097D02*
X56517Y-44097D01*
X56547Y-44082D01*
X56562Y-44067D01*
X56577Y-44037D01*
X56577Y-43977D01*
X56562Y-43947D01*
X56547Y-43932D01*
X56517Y-43917D01*
X56262Y-43917D01*
X56562Y-43782D02*
X56577Y-43737D01*
X56577Y-43662D01*
X56562Y-43632D01*
X56547Y-43617D01*
X56517Y-43602D01*
X56487Y-43602D01*
X56457Y-43617D01*
X56442Y-43632D01*
X56427Y-43662D01*
X56412Y-43722D01*
X56397Y-43752D01*
X56382Y-43767D01*
X56352Y-43782D01*
X56322Y-43782D01*
X56292Y-43767D01*
X56277Y-43752D01*
X56262Y-43722D01*
X56262Y-43647D01*
X56277Y-43602D01*
X56577Y-43467D02*
X56262Y-43467D01*
X56412Y-43467D02*
X56412Y-43287D01*
X56577Y-43287D02*
X56262Y-43287D01*
G54D10*
X54296Y-37540D02*
X54033Y-37466D01*
X54134Y-37701D02*
X53781Y-37348D01*
X53889Y-37240D01*
X53933Y-37230D01*
X53963Y-37233D01*
X54010Y-37254D01*
X54061Y-37304D01*
X54081Y-37351D01*
X54084Y-37381D01*
X54074Y-37425D01*
X53966Y-37533D01*
X54566Y-37270D02*
X54404Y-37432D01*
X54484Y-37351D02*
X54131Y-36998D01*
X54155Y-37076D01*
X54161Y-37136D01*
X54151Y-37180D01*
X53623Y-36073D02*
X53620Y-36043D01*
X53630Y-35999D01*
X53697Y-35931D01*
X53741Y-35921D01*
X53772Y-35925D01*
X53819Y-35945D01*
X53852Y-35978D01*
X53890Y-36043D01*
X53929Y-36406D01*
X54105Y-36231D01*
X53893Y-35804D02*
X53889Y-35773D01*
X53899Y-35730D01*
X53967Y-35662D01*
X54011Y-35652D01*
X54041Y-35655D01*
X54088Y-35676D01*
X54122Y-35709D01*
X54159Y-35773D01*
X54199Y-36137D01*
X54374Y-35962D01*
X54195Y-35433D02*
X54223Y-35406D01*
X54267Y-35396D01*
X54297Y-35399D01*
X54344Y-35420D01*
X54425Y-35474D01*
X54509Y-35558D01*
X54563Y-35638D01*
X54583Y-35686D01*
X54587Y-35716D01*
X54576Y-35759D01*
X54549Y-35787D01*
X54506Y-35797D01*
X54475Y-35794D01*
X54428Y-35773D01*
X54347Y-35720D01*
X54263Y-35636D01*
X54209Y-35555D01*
X54189Y-35508D01*
X54185Y-35477D01*
X54195Y-35433D01*
G54D16*
X54152Y-40789D02*
X53652Y-40789D01*
X54105Y-40318D02*
X54129Y-40339D01*
X54152Y-40403D01*
X54152Y-40446D01*
X54129Y-40511D01*
X54081Y-40553D01*
X54033Y-40575D01*
X53938Y-40596D01*
X53867Y-40596D01*
X53771Y-40575D01*
X53724Y-40553D01*
X53676Y-40511D01*
X53652Y-40446D01*
X53652Y-40403D01*
X53676Y-40339D01*
X53700Y-40318D01*
X54152Y-39889D02*
X54152Y-40146D01*
X54152Y-40018D02*
X53652Y-40018D01*
X53724Y-40061D01*
X53771Y-40103D01*
X53795Y-40146D01*
X54745Y-40410D02*
X54936Y-40410D01*
X54707Y-40552D02*
X54840Y-40052D01*
X54974Y-40552D01*
X55050Y-40052D02*
X55279Y-40052D01*
X55164Y-40552D02*
X55164Y-40052D01*
X55355Y-40052D02*
X55584Y-40052D01*
X55469Y-40552D02*
X55469Y-40052D01*
X55717Y-40552D02*
X55717Y-40052D01*
X55907Y-40552D02*
X55907Y-40052D01*
X56136Y-40552D01*
X56136Y-40052D01*
X56402Y-40314D02*
X56402Y-40552D01*
X56269Y-40052D02*
X56402Y-40314D01*
X56536Y-40052D01*
X56726Y-40267D02*
X56688Y-40243D01*
X56669Y-40219D01*
X56650Y-40171D01*
X56650Y-40148D01*
X56669Y-40100D01*
X56688Y-40076D01*
X56726Y-40052D01*
X56803Y-40052D01*
X56841Y-40076D01*
X56860Y-40100D01*
X56879Y-40148D01*
X56879Y-40171D01*
X56860Y-40219D01*
X56841Y-40243D01*
X56803Y-40267D01*
X56726Y-40267D01*
X56688Y-40290D01*
X56669Y-40314D01*
X56650Y-40362D01*
X56650Y-40457D01*
X56669Y-40505D01*
X56688Y-40529D01*
X56726Y-40552D01*
X56803Y-40552D01*
X56841Y-40529D01*
X56860Y-40505D01*
X56879Y-40457D01*
X56879Y-40362D01*
X56860Y-40314D01*
X56841Y-40290D01*
X56803Y-40267D01*
X57241Y-40052D02*
X57050Y-40052D01*
X57031Y-40290D01*
X57050Y-40267D01*
X57088Y-40243D01*
X57184Y-40243D01*
X57222Y-40267D01*
X57241Y-40290D01*
X57260Y-40338D01*
X57260Y-40457D01*
X57241Y-40505D01*
X57222Y-40529D01*
X57184Y-40552D01*
X57088Y-40552D01*
X57050Y-40529D01*
X57031Y-40505D01*
X57431Y-40362D02*
X57736Y-40362D01*
X57926Y-40552D02*
X57926Y-40052D01*
X58079Y-40052D01*
X58117Y-40076D01*
X58136Y-40100D01*
X58155Y-40148D01*
X58155Y-40219D01*
X58136Y-40267D01*
X58117Y-40290D01*
X58079Y-40314D01*
X57926Y-40314D01*
G54D17*
X57728Y-36821D02*
X57728Y-36521D01*
X57800Y-36521D01*
X57843Y-36536D01*
X57871Y-36564D01*
X57886Y-36593D01*
X57900Y-36650D01*
X57900Y-36693D01*
X57886Y-36750D01*
X57871Y-36779D01*
X57843Y-36807D01*
X57800Y-36821D01*
X57728Y-36821D01*
X58186Y-36821D02*
X58014Y-36821D01*
X58100Y-36821D02*
X58100Y-36521D01*
X58071Y-36564D01*
X58043Y-36593D01*
X58014Y-36607D01*
X56207Y-36071D02*
X56064Y-36071D01*
X56064Y-35771D01*
X56307Y-35914D02*
X56407Y-35914D01*
X56450Y-36071D02*
X56307Y-36071D01*
X56307Y-35771D01*
X56450Y-35771D01*
X56578Y-36071D02*
X56578Y-35771D01*
X56650Y-35771D01*
X56693Y-35786D01*
X56721Y-35814D01*
X56736Y-35843D01*
X56750Y-35900D01*
X56750Y-35943D01*
X56736Y-36000D01*
X56721Y-36029D01*
X56693Y-36057D01*
X56650Y-36071D01*
X56578Y-36071D01*
X54628Y-34171D02*
X54628Y-33871D01*
X54700Y-33871D01*
X54743Y-33886D01*
X54771Y-33914D01*
X54786Y-33943D01*
X54800Y-34000D01*
X54800Y-34043D01*
X54786Y-34100D01*
X54771Y-34129D01*
X54743Y-34157D01*
X54700Y-34171D01*
X54628Y-34171D01*
X54914Y-33900D02*
X54928Y-33886D01*
X54957Y-33871D01*
X55028Y-33871D01*
X55057Y-33886D01*
X55071Y-33900D01*
X55086Y-33929D01*
X55086Y-33957D01*
X55071Y-34000D01*
X54900Y-34171D01*
X55086Y-34171D01*
X56207Y-34921D02*
X56064Y-34921D01*
X56064Y-34621D01*
X56307Y-34764D02*
X56407Y-34764D01*
X56450Y-34921D02*
X56307Y-34921D01*
X56307Y-34621D01*
X56450Y-34621D01*
X56578Y-34921D02*
X56578Y-34621D01*
X56650Y-34621D01*
X56693Y-34636D01*
X56721Y-34664D01*
X56736Y-34693D01*
X56750Y-34750D01*
X56750Y-34793D01*
X56736Y-34850D01*
X56721Y-34879D01*
X56693Y-34907D01*
X56650Y-34921D01*
X56578Y-34921D01*
M02*
