G04 (created by PCBNEW-RS274X (2012-apr-16-27)-stable) date Sun 09 Feb 2014 20:33:20 GMT*
G01*
G70*
G90*
%MOIN*%
G04 Gerber Fmt 3.4, Leading zero omitted, Abs format*
%FSLAX34Y34*%
G04 APERTURE LIST*
%ADD10C,0.006000*%
%ADD11C,0.055000*%
%ADD12R,0.055000X0.055000*%
%ADD13C,0.160000*%
%ADD14C,0.060000*%
%ADD15C,0.066000*%
%ADD16C,0.008000*%
%ADD17C,0.010000*%
G04 APERTURE END LIST*
G54D10*
G54D11*
X59450Y-34100D03*
X59450Y-37600D03*
X60100Y-42150D03*
X60100Y-38650D03*
G54D12*
X52350Y-44450D03*
G54D11*
X52350Y-43450D03*
X52350Y-42450D03*
G54D13*
X60050Y-45000D03*
X52600Y-34550D03*
G54D14*
X54050Y-44930D03*
X54050Y-42970D03*
G54D11*
X57336Y-43070D03*
X57336Y-45630D03*
X55564Y-43070D03*
X55564Y-45630D03*
X52513Y-37537D03*
X54987Y-35063D03*
G54D12*
X54950Y-41850D03*
G54D11*
X55950Y-41850D03*
X56950Y-41850D03*
X57950Y-41850D03*
X57950Y-38850D03*
X56950Y-38850D03*
X55950Y-38850D03*
X54950Y-38850D03*
G54D15*
X56900Y-36650D03*
X55900Y-36650D03*
X55900Y-34100D03*
X56900Y-34100D03*
G54D16*
X52950Y-43450D02*
X53300Y-43100D01*
X53300Y-39500D02*
X53950Y-38850D01*
X53300Y-43100D02*
X53300Y-39500D01*
X55564Y-43070D02*
X55564Y-43064D01*
X52800Y-43900D02*
X52350Y-43450D01*
X54728Y-43900D02*
X52800Y-43900D01*
X55564Y-43064D02*
X54728Y-43900D01*
X52350Y-43450D02*
X52950Y-43450D01*
X53950Y-38850D02*
X54950Y-38850D01*
X57336Y-43070D02*
X57336Y-42236D01*
X59200Y-42150D02*
X60100Y-42150D01*
X57336Y-42236D02*
X56950Y-41850D01*
X57920Y-45630D02*
X58500Y-45050D01*
X58500Y-42850D02*
X59200Y-42150D01*
X57336Y-45630D02*
X57920Y-45630D01*
X58500Y-45050D02*
X58500Y-42850D01*
X57950Y-37600D02*
X57000Y-36650D01*
X57950Y-38850D02*
X57950Y-37600D01*
X57000Y-36650D02*
X56900Y-36650D01*
X56900Y-34100D02*
X59450Y-34100D01*
X55900Y-36650D02*
X53400Y-36650D01*
X53400Y-36650D02*
X52513Y-37537D01*
X56950Y-38850D02*
X56950Y-38550D01*
X54850Y-34100D02*
X55900Y-34100D01*
X51850Y-37100D02*
X54850Y-34100D01*
X51850Y-38850D02*
X51850Y-37100D01*
X51900Y-38900D02*
X51850Y-38850D01*
X52700Y-38900D02*
X51900Y-38900D01*
X53650Y-37950D02*
X52700Y-38900D01*
X56350Y-37950D02*
X53650Y-37950D01*
X56950Y-38550D02*
X56350Y-37950D01*
X54050Y-44930D02*
X52830Y-44930D01*
X52830Y-44930D02*
X52350Y-44450D01*
G54D10*
G36*
X61075Y-44731D02*
X60940Y-44406D01*
X60645Y-44110D01*
X60260Y-43950D01*
X59842Y-43950D01*
X59456Y-44110D01*
X59160Y-44405D01*
X59000Y-44790D01*
X59000Y-45208D01*
X59160Y-45594D01*
X59455Y-45890D01*
X59779Y-46025D01*
X57683Y-46025D01*
X57781Y-45928D01*
X57784Y-45920D01*
X57920Y-45920D01*
X58031Y-45898D01*
X58125Y-45835D01*
X58705Y-45255D01*
X58768Y-45161D01*
X58790Y-45050D01*
X58790Y-42970D01*
X59320Y-42440D01*
X59652Y-42440D01*
X59655Y-42447D01*
X59802Y-42595D01*
X59995Y-42675D01*
X60204Y-42675D01*
X60397Y-42595D01*
X60545Y-42448D01*
X60625Y-42255D01*
X60625Y-42046D01*
X60619Y-42031D01*
X60619Y-38724D01*
X60608Y-38520D01*
X60552Y-38383D01*
X60461Y-38360D01*
X60390Y-38431D01*
X60390Y-38289D01*
X60367Y-38198D01*
X60174Y-38131D01*
X59970Y-38142D01*
X59969Y-38142D01*
X59969Y-37674D01*
X59958Y-37470D01*
X59902Y-37333D01*
X59811Y-37310D01*
X59740Y-37381D01*
X59740Y-37239D01*
X59717Y-37148D01*
X59524Y-37081D01*
X59320Y-37092D01*
X59183Y-37148D01*
X59160Y-37239D01*
X59450Y-37529D01*
X59740Y-37239D01*
X59740Y-37381D01*
X59521Y-37600D01*
X59811Y-37890D01*
X59902Y-37867D01*
X59969Y-37674D01*
X59969Y-38142D01*
X59833Y-38198D01*
X59810Y-38289D01*
X60100Y-38579D01*
X60390Y-38289D01*
X60390Y-38431D01*
X60171Y-38650D01*
X60461Y-38940D01*
X60552Y-38917D01*
X60619Y-38724D01*
X60619Y-42031D01*
X60545Y-41853D01*
X60398Y-41705D01*
X60390Y-41701D01*
X60390Y-39011D01*
X60100Y-38721D01*
X60029Y-38792D01*
X60029Y-38650D01*
X59740Y-38361D01*
X59740Y-37961D01*
X59450Y-37671D01*
X59379Y-37742D01*
X59379Y-37600D01*
X59089Y-37310D01*
X58998Y-37333D01*
X58931Y-37526D01*
X58942Y-37730D01*
X58998Y-37867D01*
X59089Y-37890D01*
X59379Y-37600D01*
X59379Y-37742D01*
X59160Y-37961D01*
X59183Y-38052D01*
X59376Y-38119D01*
X59580Y-38108D01*
X59717Y-38052D01*
X59740Y-37961D01*
X59740Y-38361D01*
X59739Y-38360D01*
X59648Y-38383D01*
X59581Y-38576D01*
X59592Y-38780D01*
X59648Y-38917D01*
X59739Y-38940D01*
X60029Y-38650D01*
X60029Y-38792D01*
X59810Y-39011D01*
X59833Y-39102D01*
X60026Y-39169D01*
X60230Y-39158D01*
X60367Y-39102D01*
X60390Y-39011D01*
X60390Y-41701D01*
X60205Y-41625D01*
X59996Y-41625D01*
X59803Y-41705D01*
X59655Y-41852D01*
X59651Y-41860D01*
X59200Y-41860D01*
X59089Y-41882D01*
X58995Y-41945D01*
X58994Y-41945D01*
X58994Y-41946D01*
X58469Y-42471D01*
X58469Y-41924D01*
X58458Y-41720D01*
X58402Y-41583D01*
X58311Y-41560D01*
X58240Y-41631D01*
X58240Y-41489D01*
X58217Y-41398D01*
X58024Y-41331D01*
X57820Y-41342D01*
X57683Y-41398D01*
X57660Y-41489D01*
X57950Y-41779D01*
X58240Y-41489D01*
X58240Y-41631D01*
X58021Y-41850D01*
X58311Y-42140D01*
X58402Y-42117D01*
X58469Y-41924D01*
X58469Y-42471D01*
X58295Y-42645D01*
X58240Y-42727D01*
X58240Y-42211D01*
X57985Y-41956D01*
X57950Y-41921D01*
X57879Y-41850D01*
X57844Y-41815D01*
X57589Y-41560D01*
X57498Y-41583D01*
X57456Y-41701D01*
X57395Y-41553D01*
X57248Y-41405D01*
X57055Y-41325D01*
X56846Y-41325D01*
X56653Y-41405D01*
X56505Y-41552D01*
X56449Y-41685D01*
X56395Y-41553D01*
X56248Y-41405D01*
X56055Y-41325D01*
X55846Y-41325D01*
X55653Y-41405D01*
X55505Y-41552D01*
X55474Y-41626D01*
X55474Y-41526D01*
X55436Y-41434D01*
X55366Y-41364D01*
X55275Y-41326D01*
X55176Y-41326D01*
X54626Y-41326D01*
X54534Y-41364D01*
X54464Y-41434D01*
X54426Y-41525D01*
X54426Y-41624D01*
X54426Y-42174D01*
X54464Y-42266D01*
X54534Y-42336D01*
X54625Y-42374D01*
X54724Y-42374D01*
X55274Y-42374D01*
X55366Y-42336D01*
X55436Y-42266D01*
X55474Y-42175D01*
X55474Y-42076D01*
X55474Y-42072D01*
X55505Y-42147D01*
X55652Y-42295D01*
X55845Y-42375D01*
X56054Y-42375D01*
X56247Y-42295D01*
X56395Y-42148D01*
X56450Y-42014D01*
X56505Y-42147D01*
X56652Y-42295D01*
X56845Y-42375D01*
X57046Y-42375D01*
X57046Y-42622D01*
X57039Y-42625D01*
X56891Y-42772D01*
X56811Y-42965D01*
X56811Y-43174D01*
X56891Y-43367D01*
X57038Y-43515D01*
X57231Y-43595D01*
X57440Y-43595D01*
X57633Y-43515D01*
X57781Y-43368D01*
X57861Y-43175D01*
X57861Y-42966D01*
X57781Y-42773D01*
X57634Y-42625D01*
X57626Y-42621D01*
X57626Y-42281D01*
X57643Y-42298D01*
X57674Y-42266D01*
X57683Y-42302D01*
X57876Y-42369D01*
X58080Y-42358D01*
X58217Y-42302D01*
X58240Y-42211D01*
X58240Y-42727D01*
X58232Y-42739D01*
X58210Y-42850D01*
X58210Y-44930D01*
X57800Y-45340D01*
X57783Y-45340D01*
X57781Y-45333D01*
X57634Y-45185D01*
X57441Y-45105D01*
X57232Y-45105D01*
X57039Y-45185D01*
X56891Y-45332D01*
X56811Y-45525D01*
X56811Y-45734D01*
X56891Y-45927D01*
X56988Y-46025D01*
X55911Y-46025D01*
X56009Y-45928D01*
X56089Y-45735D01*
X56089Y-45526D01*
X56009Y-45333D01*
X55862Y-45185D01*
X55669Y-45105D01*
X55460Y-45105D01*
X55267Y-45185D01*
X55119Y-45332D01*
X55039Y-45525D01*
X55039Y-45734D01*
X55119Y-45927D01*
X55216Y-46025D01*
X51725Y-46025D01*
X51725Y-43350D01*
X51725Y-39125D01*
X51757Y-39146D01*
X51788Y-39167D01*
X51789Y-39168D01*
X51899Y-39189D01*
X51900Y-39190D01*
X52700Y-39190D01*
X52811Y-39168D01*
X52905Y-39105D01*
X53770Y-38240D01*
X56230Y-38240D01*
X56523Y-38533D01*
X56505Y-38552D01*
X56449Y-38685D01*
X56395Y-38553D01*
X56248Y-38405D01*
X56055Y-38325D01*
X55846Y-38325D01*
X55653Y-38405D01*
X55505Y-38552D01*
X55449Y-38685D01*
X55395Y-38553D01*
X55248Y-38405D01*
X55055Y-38325D01*
X54846Y-38325D01*
X54653Y-38405D01*
X54505Y-38552D01*
X54501Y-38560D01*
X53950Y-38560D01*
X53839Y-38582D01*
X53745Y-38645D01*
X53095Y-39295D01*
X53032Y-39389D01*
X53010Y-39500D01*
X53010Y-42980D01*
X52830Y-43160D01*
X52797Y-43160D01*
X52795Y-43153D01*
X52648Y-43005D01*
X52514Y-42949D01*
X52647Y-42895D01*
X52795Y-42748D01*
X52875Y-42555D01*
X52875Y-42346D01*
X52795Y-42153D01*
X52648Y-42005D01*
X52455Y-41925D01*
X52246Y-41925D01*
X52053Y-42005D01*
X51905Y-42152D01*
X51825Y-42345D01*
X51825Y-42554D01*
X51905Y-42747D01*
X52052Y-42895D01*
X52185Y-42950D01*
X52053Y-43005D01*
X51905Y-43152D01*
X51825Y-43345D01*
X51825Y-43554D01*
X51905Y-43747D01*
X52052Y-43895D01*
X52126Y-43926D01*
X52026Y-43926D01*
X51934Y-43964D01*
X51864Y-44034D01*
X51826Y-44125D01*
X51826Y-44224D01*
X51826Y-44774D01*
X51864Y-44866D01*
X51934Y-44936D01*
X52025Y-44974D01*
X52124Y-44974D01*
X52464Y-44974D01*
X52624Y-45134D01*
X52625Y-45135D01*
X52718Y-45197D01*
X52719Y-45198D01*
X52829Y-45219D01*
X52830Y-45220D01*
X53576Y-45220D01*
X53585Y-45241D01*
X53739Y-45395D01*
X53941Y-45479D01*
X54159Y-45479D01*
X54361Y-45395D01*
X54515Y-45241D01*
X54599Y-45039D01*
X54599Y-44821D01*
X54515Y-44619D01*
X54361Y-44465D01*
X54159Y-44381D01*
X53941Y-44381D01*
X53739Y-44465D01*
X53585Y-44619D01*
X53576Y-44640D01*
X52950Y-44640D01*
X52874Y-44564D01*
X52874Y-44190D01*
X54728Y-44190D01*
X54839Y-44168D01*
X54933Y-44105D01*
X55447Y-43590D01*
X55459Y-43595D01*
X55668Y-43595D01*
X55861Y-43515D01*
X56009Y-43368D01*
X56089Y-43175D01*
X56089Y-42966D01*
X56009Y-42773D01*
X55862Y-42625D01*
X55669Y-42545D01*
X55460Y-42545D01*
X55267Y-42625D01*
X55119Y-42772D01*
X55039Y-42965D01*
X55039Y-43174D01*
X55040Y-43177D01*
X54608Y-43610D01*
X54593Y-43610D01*
X54593Y-43049D01*
X54582Y-42836D01*
X54522Y-42689D01*
X54428Y-42662D01*
X54358Y-42732D01*
X54358Y-42592D01*
X54331Y-42498D01*
X54129Y-42427D01*
X53916Y-42438D01*
X53769Y-42498D01*
X53742Y-42592D01*
X54050Y-42899D01*
X54358Y-42592D01*
X54358Y-42732D01*
X54121Y-42970D01*
X54428Y-43278D01*
X54522Y-43251D01*
X54593Y-43049D01*
X54593Y-43610D01*
X54358Y-43610D01*
X54358Y-43348D01*
X54050Y-43041D01*
X53742Y-43348D01*
X53769Y-43442D01*
X53971Y-43513D01*
X54184Y-43502D01*
X54331Y-43442D01*
X54358Y-43348D01*
X54358Y-43610D01*
X53200Y-43610D01*
X53504Y-43306D01*
X53504Y-43305D01*
X53505Y-43305D01*
X53563Y-43216D01*
X53564Y-43216D01*
X53578Y-43251D01*
X53672Y-43278D01*
X53979Y-42970D01*
X53672Y-42662D01*
X53590Y-42685D01*
X53590Y-39620D01*
X54070Y-39140D01*
X54502Y-39140D01*
X54505Y-39147D01*
X54652Y-39295D01*
X54845Y-39375D01*
X55054Y-39375D01*
X55247Y-39295D01*
X55395Y-39148D01*
X55450Y-39014D01*
X55505Y-39147D01*
X55652Y-39295D01*
X55845Y-39375D01*
X56054Y-39375D01*
X56247Y-39295D01*
X56395Y-39148D01*
X56450Y-39014D01*
X56505Y-39147D01*
X56652Y-39295D01*
X56845Y-39375D01*
X57054Y-39375D01*
X57247Y-39295D01*
X57395Y-39148D01*
X57450Y-39014D01*
X57505Y-39147D01*
X57652Y-39295D01*
X57845Y-39375D01*
X58054Y-39375D01*
X58247Y-39295D01*
X58395Y-39148D01*
X58475Y-38955D01*
X58475Y-38746D01*
X58395Y-38553D01*
X58248Y-38405D01*
X58240Y-38401D01*
X58240Y-37600D01*
X58218Y-37489D01*
X58155Y-37395D01*
X57480Y-36720D01*
X57480Y-36535D01*
X57392Y-36322D01*
X57229Y-36159D01*
X57016Y-36070D01*
X56785Y-36070D01*
X56572Y-36158D01*
X56409Y-36321D01*
X56400Y-36341D01*
X56392Y-36322D01*
X56229Y-36159D01*
X56016Y-36070D01*
X55785Y-36070D01*
X55572Y-36158D01*
X55495Y-36235D01*
X55495Y-35194D01*
X55495Y-34932D01*
X55406Y-34748D01*
X55254Y-34612D01*
X55118Y-34555D01*
X55037Y-34603D01*
X55037Y-35013D01*
X55447Y-35013D01*
X55495Y-34932D01*
X55495Y-35194D01*
X55447Y-35113D01*
X55037Y-35113D01*
X55037Y-35523D01*
X55118Y-35571D01*
X55302Y-35482D01*
X55438Y-35330D01*
X55495Y-35194D01*
X55495Y-36235D01*
X55409Y-36321D01*
X55392Y-36360D01*
X54937Y-36360D01*
X54937Y-35523D01*
X54937Y-35113D01*
X54527Y-35113D01*
X54479Y-35194D01*
X54568Y-35378D01*
X54720Y-35514D01*
X54856Y-35571D01*
X54937Y-35523D01*
X54937Y-36360D01*
X53400Y-36360D01*
X53289Y-36382D01*
X53195Y-36445D01*
X52625Y-37014D01*
X52618Y-37012D01*
X52409Y-37012D01*
X52304Y-37055D01*
X54515Y-34845D01*
X54479Y-34932D01*
X54527Y-35013D01*
X54796Y-35013D01*
X54881Y-35098D01*
X55022Y-34957D01*
X54937Y-34872D01*
X54937Y-34603D01*
X54856Y-34555D01*
X54758Y-34601D01*
X54970Y-34390D01*
X55392Y-34390D01*
X55408Y-34428D01*
X55571Y-34591D01*
X55784Y-34680D01*
X56015Y-34680D01*
X56228Y-34592D01*
X56391Y-34429D01*
X56399Y-34408D01*
X56408Y-34428D01*
X56571Y-34591D01*
X56784Y-34680D01*
X57015Y-34680D01*
X57228Y-34592D01*
X57391Y-34429D01*
X57407Y-34390D01*
X59002Y-34390D01*
X59005Y-34397D01*
X59152Y-34545D01*
X59345Y-34625D01*
X59554Y-34625D01*
X59747Y-34545D01*
X59895Y-34398D01*
X59975Y-34205D01*
X59975Y-33996D01*
X59895Y-33803D01*
X59767Y-33675D01*
X61075Y-33675D01*
X61075Y-43350D01*
X61075Y-44731D01*
X61075Y-44731D01*
G37*
G54D17*
X61075Y-44731D02*
X60940Y-44406D01*
X60645Y-44110D01*
X60260Y-43950D01*
X59842Y-43950D01*
X59456Y-44110D01*
X59160Y-44405D01*
X59000Y-44790D01*
X59000Y-45208D01*
X59160Y-45594D01*
X59455Y-45890D01*
X59779Y-46025D01*
X57683Y-46025D01*
X57781Y-45928D01*
X57784Y-45920D01*
X57920Y-45920D01*
X58031Y-45898D01*
X58125Y-45835D01*
X58705Y-45255D01*
X58768Y-45161D01*
X58790Y-45050D01*
X58790Y-42970D01*
X59320Y-42440D01*
X59652Y-42440D01*
X59655Y-42447D01*
X59802Y-42595D01*
X59995Y-42675D01*
X60204Y-42675D01*
X60397Y-42595D01*
X60545Y-42448D01*
X60625Y-42255D01*
X60625Y-42046D01*
X60619Y-42031D01*
X60619Y-38724D01*
X60608Y-38520D01*
X60552Y-38383D01*
X60461Y-38360D01*
X60390Y-38431D01*
X60390Y-38289D01*
X60367Y-38198D01*
X60174Y-38131D01*
X59970Y-38142D01*
X59969Y-38142D01*
X59969Y-37674D01*
X59958Y-37470D01*
X59902Y-37333D01*
X59811Y-37310D01*
X59740Y-37381D01*
X59740Y-37239D01*
X59717Y-37148D01*
X59524Y-37081D01*
X59320Y-37092D01*
X59183Y-37148D01*
X59160Y-37239D01*
X59450Y-37529D01*
X59740Y-37239D01*
X59740Y-37381D01*
X59521Y-37600D01*
X59811Y-37890D01*
X59902Y-37867D01*
X59969Y-37674D01*
X59969Y-38142D01*
X59833Y-38198D01*
X59810Y-38289D01*
X60100Y-38579D01*
X60390Y-38289D01*
X60390Y-38431D01*
X60171Y-38650D01*
X60461Y-38940D01*
X60552Y-38917D01*
X60619Y-38724D01*
X60619Y-42031D01*
X60545Y-41853D01*
X60398Y-41705D01*
X60390Y-41701D01*
X60390Y-39011D01*
X60100Y-38721D01*
X60029Y-38792D01*
X60029Y-38650D01*
X59740Y-38361D01*
X59740Y-37961D01*
X59450Y-37671D01*
X59379Y-37742D01*
X59379Y-37600D01*
X59089Y-37310D01*
X58998Y-37333D01*
X58931Y-37526D01*
X58942Y-37730D01*
X58998Y-37867D01*
X59089Y-37890D01*
X59379Y-37600D01*
X59379Y-37742D01*
X59160Y-37961D01*
X59183Y-38052D01*
X59376Y-38119D01*
X59580Y-38108D01*
X59717Y-38052D01*
X59740Y-37961D01*
X59740Y-38361D01*
X59739Y-38360D01*
X59648Y-38383D01*
X59581Y-38576D01*
X59592Y-38780D01*
X59648Y-38917D01*
X59739Y-38940D01*
X60029Y-38650D01*
X60029Y-38792D01*
X59810Y-39011D01*
X59833Y-39102D01*
X60026Y-39169D01*
X60230Y-39158D01*
X60367Y-39102D01*
X60390Y-39011D01*
X60390Y-41701D01*
X60205Y-41625D01*
X59996Y-41625D01*
X59803Y-41705D01*
X59655Y-41852D01*
X59651Y-41860D01*
X59200Y-41860D01*
X59089Y-41882D01*
X58995Y-41945D01*
X58994Y-41945D01*
X58994Y-41946D01*
X58469Y-42471D01*
X58469Y-41924D01*
X58458Y-41720D01*
X58402Y-41583D01*
X58311Y-41560D01*
X58240Y-41631D01*
X58240Y-41489D01*
X58217Y-41398D01*
X58024Y-41331D01*
X57820Y-41342D01*
X57683Y-41398D01*
X57660Y-41489D01*
X57950Y-41779D01*
X58240Y-41489D01*
X58240Y-41631D01*
X58021Y-41850D01*
X58311Y-42140D01*
X58402Y-42117D01*
X58469Y-41924D01*
X58469Y-42471D01*
X58295Y-42645D01*
X58240Y-42727D01*
X58240Y-42211D01*
X57985Y-41956D01*
X57950Y-41921D01*
X57879Y-41850D01*
X57844Y-41815D01*
X57589Y-41560D01*
X57498Y-41583D01*
X57456Y-41701D01*
X57395Y-41553D01*
X57248Y-41405D01*
X57055Y-41325D01*
X56846Y-41325D01*
X56653Y-41405D01*
X56505Y-41552D01*
X56449Y-41685D01*
X56395Y-41553D01*
X56248Y-41405D01*
X56055Y-41325D01*
X55846Y-41325D01*
X55653Y-41405D01*
X55505Y-41552D01*
X55474Y-41626D01*
X55474Y-41526D01*
X55436Y-41434D01*
X55366Y-41364D01*
X55275Y-41326D01*
X55176Y-41326D01*
X54626Y-41326D01*
X54534Y-41364D01*
X54464Y-41434D01*
X54426Y-41525D01*
X54426Y-41624D01*
X54426Y-42174D01*
X54464Y-42266D01*
X54534Y-42336D01*
X54625Y-42374D01*
X54724Y-42374D01*
X55274Y-42374D01*
X55366Y-42336D01*
X55436Y-42266D01*
X55474Y-42175D01*
X55474Y-42076D01*
X55474Y-42072D01*
X55505Y-42147D01*
X55652Y-42295D01*
X55845Y-42375D01*
X56054Y-42375D01*
X56247Y-42295D01*
X56395Y-42148D01*
X56450Y-42014D01*
X56505Y-42147D01*
X56652Y-42295D01*
X56845Y-42375D01*
X57046Y-42375D01*
X57046Y-42622D01*
X57039Y-42625D01*
X56891Y-42772D01*
X56811Y-42965D01*
X56811Y-43174D01*
X56891Y-43367D01*
X57038Y-43515D01*
X57231Y-43595D01*
X57440Y-43595D01*
X57633Y-43515D01*
X57781Y-43368D01*
X57861Y-43175D01*
X57861Y-42966D01*
X57781Y-42773D01*
X57634Y-42625D01*
X57626Y-42621D01*
X57626Y-42281D01*
X57643Y-42298D01*
X57674Y-42266D01*
X57683Y-42302D01*
X57876Y-42369D01*
X58080Y-42358D01*
X58217Y-42302D01*
X58240Y-42211D01*
X58240Y-42727D01*
X58232Y-42739D01*
X58210Y-42850D01*
X58210Y-44930D01*
X57800Y-45340D01*
X57783Y-45340D01*
X57781Y-45333D01*
X57634Y-45185D01*
X57441Y-45105D01*
X57232Y-45105D01*
X57039Y-45185D01*
X56891Y-45332D01*
X56811Y-45525D01*
X56811Y-45734D01*
X56891Y-45927D01*
X56988Y-46025D01*
X55911Y-46025D01*
X56009Y-45928D01*
X56089Y-45735D01*
X56089Y-45526D01*
X56009Y-45333D01*
X55862Y-45185D01*
X55669Y-45105D01*
X55460Y-45105D01*
X55267Y-45185D01*
X55119Y-45332D01*
X55039Y-45525D01*
X55039Y-45734D01*
X55119Y-45927D01*
X55216Y-46025D01*
X51725Y-46025D01*
X51725Y-43350D01*
X51725Y-39125D01*
X51757Y-39146D01*
X51788Y-39167D01*
X51789Y-39168D01*
X51899Y-39189D01*
X51900Y-39190D01*
X52700Y-39190D01*
X52811Y-39168D01*
X52905Y-39105D01*
X53770Y-38240D01*
X56230Y-38240D01*
X56523Y-38533D01*
X56505Y-38552D01*
X56449Y-38685D01*
X56395Y-38553D01*
X56248Y-38405D01*
X56055Y-38325D01*
X55846Y-38325D01*
X55653Y-38405D01*
X55505Y-38552D01*
X55449Y-38685D01*
X55395Y-38553D01*
X55248Y-38405D01*
X55055Y-38325D01*
X54846Y-38325D01*
X54653Y-38405D01*
X54505Y-38552D01*
X54501Y-38560D01*
X53950Y-38560D01*
X53839Y-38582D01*
X53745Y-38645D01*
X53095Y-39295D01*
X53032Y-39389D01*
X53010Y-39500D01*
X53010Y-42980D01*
X52830Y-43160D01*
X52797Y-43160D01*
X52795Y-43153D01*
X52648Y-43005D01*
X52514Y-42949D01*
X52647Y-42895D01*
X52795Y-42748D01*
X52875Y-42555D01*
X52875Y-42346D01*
X52795Y-42153D01*
X52648Y-42005D01*
X52455Y-41925D01*
X52246Y-41925D01*
X52053Y-42005D01*
X51905Y-42152D01*
X51825Y-42345D01*
X51825Y-42554D01*
X51905Y-42747D01*
X52052Y-42895D01*
X52185Y-42950D01*
X52053Y-43005D01*
X51905Y-43152D01*
X51825Y-43345D01*
X51825Y-43554D01*
X51905Y-43747D01*
X52052Y-43895D01*
X52126Y-43926D01*
X52026Y-43926D01*
X51934Y-43964D01*
X51864Y-44034D01*
X51826Y-44125D01*
X51826Y-44224D01*
X51826Y-44774D01*
X51864Y-44866D01*
X51934Y-44936D01*
X52025Y-44974D01*
X52124Y-44974D01*
X52464Y-44974D01*
X52624Y-45134D01*
X52625Y-45135D01*
X52718Y-45197D01*
X52719Y-45198D01*
X52829Y-45219D01*
X52830Y-45220D01*
X53576Y-45220D01*
X53585Y-45241D01*
X53739Y-45395D01*
X53941Y-45479D01*
X54159Y-45479D01*
X54361Y-45395D01*
X54515Y-45241D01*
X54599Y-45039D01*
X54599Y-44821D01*
X54515Y-44619D01*
X54361Y-44465D01*
X54159Y-44381D01*
X53941Y-44381D01*
X53739Y-44465D01*
X53585Y-44619D01*
X53576Y-44640D01*
X52950Y-44640D01*
X52874Y-44564D01*
X52874Y-44190D01*
X54728Y-44190D01*
X54839Y-44168D01*
X54933Y-44105D01*
X55447Y-43590D01*
X55459Y-43595D01*
X55668Y-43595D01*
X55861Y-43515D01*
X56009Y-43368D01*
X56089Y-43175D01*
X56089Y-42966D01*
X56009Y-42773D01*
X55862Y-42625D01*
X55669Y-42545D01*
X55460Y-42545D01*
X55267Y-42625D01*
X55119Y-42772D01*
X55039Y-42965D01*
X55039Y-43174D01*
X55040Y-43177D01*
X54608Y-43610D01*
X54593Y-43610D01*
X54593Y-43049D01*
X54582Y-42836D01*
X54522Y-42689D01*
X54428Y-42662D01*
X54358Y-42732D01*
X54358Y-42592D01*
X54331Y-42498D01*
X54129Y-42427D01*
X53916Y-42438D01*
X53769Y-42498D01*
X53742Y-42592D01*
X54050Y-42899D01*
X54358Y-42592D01*
X54358Y-42732D01*
X54121Y-42970D01*
X54428Y-43278D01*
X54522Y-43251D01*
X54593Y-43049D01*
X54593Y-43610D01*
X54358Y-43610D01*
X54358Y-43348D01*
X54050Y-43041D01*
X53742Y-43348D01*
X53769Y-43442D01*
X53971Y-43513D01*
X54184Y-43502D01*
X54331Y-43442D01*
X54358Y-43348D01*
X54358Y-43610D01*
X53200Y-43610D01*
X53504Y-43306D01*
X53504Y-43305D01*
X53505Y-43305D01*
X53563Y-43216D01*
X53564Y-43216D01*
X53578Y-43251D01*
X53672Y-43278D01*
X53979Y-42970D01*
X53672Y-42662D01*
X53590Y-42685D01*
X53590Y-39620D01*
X54070Y-39140D01*
X54502Y-39140D01*
X54505Y-39147D01*
X54652Y-39295D01*
X54845Y-39375D01*
X55054Y-39375D01*
X55247Y-39295D01*
X55395Y-39148D01*
X55450Y-39014D01*
X55505Y-39147D01*
X55652Y-39295D01*
X55845Y-39375D01*
X56054Y-39375D01*
X56247Y-39295D01*
X56395Y-39148D01*
X56450Y-39014D01*
X56505Y-39147D01*
X56652Y-39295D01*
X56845Y-39375D01*
X57054Y-39375D01*
X57247Y-39295D01*
X57395Y-39148D01*
X57450Y-39014D01*
X57505Y-39147D01*
X57652Y-39295D01*
X57845Y-39375D01*
X58054Y-39375D01*
X58247Y-39295D01*
X58395Y-39148D01*
X58475Y-38955D01*
X58475Y-38746D01*
X58395Y-38553D01*
X58248Y-38405D01*
X58240Y-38401D01*
X58240Y-37600D01*
X58218Y-37489D01*
X58155Y-37395D01*
X57480Y-36720D01*
X57480Y-36535D01*
X57392Y-36322D01*
X57229Y-36159D01*
X57016Y-36070D01*
X56785Y-36070D01*
X56572Y-36158D01*
X56409Y-36321D01*
X56400Y-36341D01*
X56392Y-36322D01*
X56229Y-36159D01*
X56016Y-36070D01*
X55785Y-36070D01*
X55572Y-36158D01*
X55495Y-36235D01*
X55495Y-35194D01*
X55495Y-34932D01*
X55406Y-34748D01*
X55254Y-34612D01*
X55118Y-34555D01*
X55037Y-34603D01*
X55037Y-35013D01*
X55447Y-35013D01*
X55495Y-34932D01*
X55495Y-35194D01*
X55447Y-35113D01*
X55037Y-35113D01*
X55037Y-35523D01*
X55118Y-35571D01*
X55302Y-35482D01*
X55438Y-35330D01*
X55495Y-35194D01*
X55495Y-36235D01*
X55409Y-36321D01*
X55392Y-36360D01*
X54937Y-36360D01*
X54937Y-35523D01*
X54937Y-35113D01*
X54527Y-35113D01*
X54479Y-35194D01*
X54568Y-35378D01*
X54720Y-35514D01*
X54856Y-35571D01*
X54937Y-35523D01*
X54937Y-36360D01*
X53400Y-36360D01*
X53289Y-36382D01*
X53195Y-36445D01*
X52625Y-37014D01*
X52618Y-37012D01*
X52409Y-37012D01*
X52304Y-37055D01*
X54515Y-34845D01*
X54479Y-34932D01*
X54527Y-35013D01*
X54796Y-35013D01*
X54881Y-35098D01*
X55022Y-34957D01*
X54937Y-34872D01*
X54937Y-34603D01*
X54856Y-34555D01*
X54758Y-34601D01*
X54970Y-34390D01*
X55392Y-34390D01*
X55408Y-34428D01*
X55571Y-34591D01*
X55784Y-34680D01*
X56015Y-34680D01*
X56228Y-34592D01*
X56391Y-34429D01*
X56399Y-34408D01*
X56408Y-34428D01*
X56571Y-34591D01*
X56784Y-34680D01*
X57015Y-34680D01*
X57228Y-34592D01*
X57391Y-34429D01*
X57407Y-34390D01*
X59002Y-34390D01*
X59005Y-34397D01*
X59152Y-34545D01*
X59345Y-34625D01*
X59554Y-34625D01*
X59747Y-34545D01*
X59895Y-34398D01*
X59975Y-34205D01*
X59975Y-33996D01*
X59895Y-33803D01*
X59767Y-33675D01*
X61075Y-33675D01*
X61075Y-43350D01*
X61075Y-44731D01*
M02*
