G04 (created by PCBNEW-RS274X (2012-apr-16-27)-stable) date Sun 09 Feb 2014 20:33:20 GMT*
G01*
G70*
G90*
%MOIN*%
G04 Gerber Fmt 3.4, Leading zero omitted, Abs format*
%FSLAX34Y34*%
G04 APERTURE LIST*
%ADD10C,0.006000*%
%ADD11C,0.005900*%
%ADD12C,0.012000*%
G04 APERTURE END LIST*
G54D10*
G54D11*
X57075Y-40704D02*
X57056Y-40676D01*
X57019Y-40648D01*
X56925Y-40648D01*
X56887Y-40676D01*
X56869Y-40704D01*
X56850Y-40760D01*
X56850Y-40817D01*
X56869Y-40901D01*
X57094Y-41239D01*
X56850Y-41239D01*
X56606Y-40648D02*
X56569Y-40648D01*
X56531Y-40676D01*
X56512Y-40704D01*
X56494Y-40760D01*
X56475Y-40873D01*
X56475Y-41014D01*
X56494Y-41126D01*
X56512Y-41182D01*
X56531Y-41211D01*
X56569Y-41239D01*
X56606Y-41239D01*
X56644Y-41211D01*
X56662Y-41182D01*
X56681Y-41126D01*
X56700Y-41014D01*
X56700Y-40873D01*
X56681Y-40760D01*
X56662Y-40704D01*
X56644Y-40676D01*
X56606Y-40648D01*
X56100Y-41239D02*
X56325Y-41239D01*
X56212Y-41239D02*
X56212Y-40648D01*
X56250Y-40732D01*
X56287Y-40788D01*
X56325Y-40817D01*
X55762Y-40845D02*
X55762Y-41239D01*
X55856Y-40620D02*
X55950Y-41042D01*
X55706Y-41042D01*
G54D12*
X60557Y-39524D02*
X60443Y-39524D01*
X60385Y-39562D01*
X60328Y-39638D01*
X60300Y-39790D01*
X60300Y-40057D01*
X60328Y-40210D01*
X60385Y-40286D01*
X60443Y-40324D01*
X60557Y-40324D01*
X60614Y-40286D01*
X60671Y-40210D01*
X60700Y-40057D01*
X60700Y-39790D01*
X60671Y-39638D01*
X60614Y-39562D01*
X60557Y-39524D01*
X60042Y-39790D02*
X60042Y-40324D01*
X60042Y-39867D02*
X60014Y-39829D01*
X59956Y-39790D01*
X59871Y-39790D01*
X59814Y-39829D01*
X59785Y-39905D01*
X59785Y-40324D01*
X59271Y-40286D02*
X59328Y-40324D01*
X59442Y-40324D01*
X59499Y-40286D01*
X59528Y-40210D01*
X59528Y-39905D01*
X59499Y-39829D01*
X59442Y-39790D01*
X59328Y-39790D01*
X59271Y-39829D01*
X59242Y-39905D01*
X59242Y-39981D01*
X59528Y-40057D01*
X58328Y-39905D02*
X58242Y-39943D01*
X58214Y-39981D01*
X58185Y-40057D01*
X58185Y-40171D01*
X58214Y-40248D01*
X58242Y-40286D01*
X58300Y-40324D01*
X58528Y-40324D01*
X58528Y-39524D01*
X58328Y-39524D01*
X58271Y-39562D01*
X58242Y-39600D01*
X58214Y-39676D01*
X58214Y-39752D01*
X58242Y-39829D01*
X58271Y-39867D01*
X58328Y-39905D01*
X58528Y-39905D01*
X57671Y-39790D02*
X57671Y-40324D01*
X57928Y-39790D02*
X57928Y-40210D01*
X57900Y-40286D01*
X57842Y-40324D01*
X57757Y-40324D01*
X57700Y-40286D01*
X57671Y-40248D01*
X57471Y-39790D02*
X57242Y-39790D01*
X57385Y-39524D02*
X57385Y-40210D01*
X57357Y-40286D01*
X57299Y-40324D01*
X57242Y-40324D01*
X57128Y-39790D02*
X56899Y-39790D01*
X57042Y-39524D02*
X57042Y-40210D01*
X57014Y-40286D01*
X56956Y-40324D01*
X56899Y-40324D01*
X56613Y-40324D02*
X56671Y-40286D01*
X56699Y-40248D01*
X56728Y-40171D01*
X56728Y-39943D01*
X56699Y-39867D01*
X56671Y-39829D01*
X56613Y-39790D01*
X56528Y-39790D01*
X56471Y-39829D01*
X56442Y-39867D01*
X56413Y-39943D01*
X56413Y-40171D01*
X56442Y-40248D01*
X56471Y-40286D01*
X56528Y-40324D01*
X56613Y-40324D01*
X56156Y-39790D02*
X56156Y-40324D01*
X56156Y-39867D02*
X56128Y-39829D01*
X56070Y-39790D01*
X55985Y-39790D01*
X55928Y-39829D01*
X55899Y-39905D01*
X55899Y-40324D01*
X54813Y-40324D02*
X55013Y-39943D01*
X55156Y-40324D02*
X55156Y-39524D01*
X54928Y-39524D01*
X54870Y-39562D01*
X54842Y-39600D01*
X54813Y-39676D01*
X54813Y-39790D01*
X54842Y-39867D01*
X54870Y-39905D01*
X54928Y-39943D01*
X55156Y-39943D01*
X54328Y-40286D02*
X54385Y-40324D01*
X54499Y-40324D01*
X54556Y-40286D01*
X54585Y-40210D01*
X54585Y-39905D01*
X54556Y-39829D01*
X54499Y-39790D01*
X54385Y-39790D01*
X54328Y-39829D01*
X54299Y-39905D01*
X54299Y-39981D01*
X54585Y-40057D01*
X54042Y-40324D02*
X54042Y-39790D01*
X54042Y-39867D02*
X54014Y-39829D01*
X53956Y-39790D01*
X53871Y-39790D01*
X53814Y-39829D01*
X53785Y-39905D01*
X53785Y-40324D01*
X53785Y-39905D02*
X53756Y-39829D01*
X53699Y-39790D01*
X53614Y-39790D01*
X53556Y-39829D01*
X53528Y-39905D01*
X53528Y-40324D01*
X53156Y-40324D02*
X53214Y-40286D01*
X53242Y-40248D01*
X53271Y-40171D01*
X53271Y-39943D01*
X53242Y-39867D01*
X53214Y-39829D01*
X53156Y-39790D01*
X53071Y-39790D01*
X53014Y-39829D01*
X52985Y-39867D01*
X52956Y-39943D01*
X52956Y-40171D01*
X52985Y-40248D01*
X53014Y-40286D01*
X53071Y-40324D01*
X53156Y-40324D01*
X52785Y-39790D02*
X52556Y-39790D01*
X52699Y-39524D02*
X52699Y-40210D01*
X52671Y-40286D01*
X52613Y-40324D01*
X52556Y-40324D01*
X52128Y-40286D02*
X52185Y-40324D01*
X52299Y-40324D01*
X52356Y-40286D01*
X52385Y-40210D01*
X52385Y-39905D01*
X52356Y-39829D01*
X52299Y-39790D01*
X52185Y-39790D01*
X52128Y-39829D01*
X52099Y-39905D01*
X52099Y-39981D01*
X52385Y-40057D01*
M02*
